# xmcd
#
# Track frame offsets:
#	150
#	22286
#	44941
#	57626
#	76798
#	89073
#	112521
#	131158
#	143334
#
# Disc length: 2120 seconds
#
# Revision: 1
# Processed by: cddbd v1.5.2PL0 Copyright (c) Steve Scherf et al.
# Submitted via: audiograbber 1.83.01
#
DISCID=7d084609
DTITLE=Unbroken Link - Evolution
DYEAR=2015
DGENRE=Blues
TTITLE0=Groovemachine
TTITLE1=Way Back Home
TTITLE2=Gimme More Of That Stuff
TTITLE3=Love Is The Only Way
TTITLE4=How Do You Feel
TTITLE5=Happy Day
TTITLE6=Tranceatlantico
TTITLE7=On Fire
TTITLE8=Sunday Morning Blues
EXTD=
EXTT0=
EXTT1=
EXTT2=
EXTT3=
EXTT4=
EXTT5=
EXTT6=
EXTT7=
EXTT8=
PLAYORDER=
